<?xml version="1.0"?>
<svg xmlns="http://www.w3.org/2000/svg" viewBox="0 0 64 64" width="512" height="512"><g id="Outlines"><g><path d="M20.707,43.293a1,1,0,0,0-1.414,0L15.586,47H15a7.009,7.009,0,0,0-7,7,1,1,0,0,0,1,1h3.184a2.982,2.982,0,0,0,5.632,0H21a1,1,0,0,0,0-2H17.816a2.982,2.982,0,0,0-5.632,0H10.1A5.008,5.008,0,0,1,15,49h6v1a1,1,0,0,0,2,0V49h7a2,2,0,0,1,2,2v2H29.816a3,3,0,1,0,0,2H33a1,1,0,0,0,1-1V51a4,4,0,0,0-4-4h-.382l.277-.553a1,1,0,0,0-1.79-.894L27.382,47H23.618l.277-.553a1,1,0,0,0-1.79-.894L21.382,47H18.414l2.293-2.293A1,1,0,0,0,20.707,43.293ZM15,53a1,1,0,1,1-1,1A1,1,0,0,1,15,53Zm12,2a1,1,0,1,1,1-1A1,1,0,0,1,27,55Z"/><path d="M54,52V48a1,1,0,0,0-2,0v4a1,1,0,0,0,2,0Z"/><path d="M46,52V48a1,1,0,0,0-2,0v4a1,1,0,0,0,2,0Z"/><path d="M61,28a1,1,0,0,0,0-2H14V24H61a1,1,0,0,0,0-2H56V3a1,1,0,0,0-1-1H19a1,1,0,0,0,0,2H54V6H52a1,1,0,0,0,0,2h2V18H51a1,1,0,0,0,0,2h3v2H24V19a1,1,0,0,0-1-1H20V8h4a1,1,0,0,0,0-2H19a1,1,0,0,0-1,1V22H13a1,1,0,0,0-1,1v4a1,1,0,0,0,1,1h2v6H3a1,1,0,0,0-1,1v4a1,1,0,0,0,1,1H4v4a1,1,0,0,0,2,0V40h7.586L8.293,45.293a1,1,0,1,0,1.414,1.414L16.414,40H29.586l-.793.793a1,1,0,1,0,1.414,1.414L32.414,40h4.172l-4.793,4.793a1,1,0,1,0,1.414,1.414L39.414,40H58V60H50V43a1,1,0,0,0-2,0V60H40V45a1,1,0,0,0-2,0v7.586L30.586,60H20.414l1.293-1.293a1,1,0,0,0-1.414-1.414L17.586,60H7.414l2.293-2.293a1,1,0,0,0-1.414-1.414L6,58.586V48a1,1,0,0,0-2,0V61a1,1,0,0,0,1,1H59a1,1,0,0,0,1-1V40h1a1,1,0,0,0,1-1V35a1,1,0,0,0-1-1H59V28ZM20,20h2v2H20ZM38,55.414V60H33.414ZM60,38H4V36H60ZM28,32v2H26V32Zm4,0v2H30V32Zm4,0v2H34V32Zm4,0v2H38V32Zm4,0v2H42V32Zm4,0v2H46V32Zm4,0v2H50V32ZM24,34H22V32h2Zm33,0H54V31a1,1,0,0,0-1-1H21a1,1,0,0,0-1,1v3H17V28H57Z"/><path d="M45.794,15.93a3.007,3.007,0,1,0,.039,2.016A7.008,7.008,0,0,0,52,11a1,1,0,0,0-1-1H47.3L42.664,6.907A7.77,7.77,0,0,0,31.349,10H31a7.009,7.009,0,0,0-7,7,1,1,0,0,0,1,1h4.184a2.982,2.982,0,0,0,5.632,0H37a1,1,0,0,0,0-2H34.816a2.982,2.982,0,0,0-5.632,0H26.1A5.008,5.008,0,0,1,31,12h6v1a1,1,0,0,0,2,0V12H49.9A5.008,5.008,0,0,1,45.794,15.93ZM43,18a1,1,0,1,1,1-1A1,1,0,0,1,43,18ZM32,16a1,1,0,1,1-1,1A1,1,0,0,1,32,16Zm1.657-6a5.786,5.786,0,0,1,7.9-1.429L43.7,10Z"/></g></g></svg>
