<svg id="Icons" height="512" viewBox="0 0 74 74" width="512" xmlns="http://www.w3.org/2000/svg"><path d="m53.658 61.8h-13.864a1 1 0 0 1 -.768-.359l-5.213-6.25h-19.78a3 3 0 0 1 -3-3v-23.767a3 3 0 0 1 3-3h6.254v-4.287a1 1 0 0 1 1-1h25.113a1 1 0 0 1 1 1v4.287h6.254a3 3 0 0 1 3 3v8.127h5.27v-5.706a1 1 0 0 1 1-1h5.288a1 1 0 0 1 .917.6 31.752 31.752 0 0 1 0 26.33 1 1 0 0 1 -.916.6h-5.285a1 1 0 0 1 -1-1v-5.707h-5.27v8.132a3 3 0 0 1 -3 3zm-13.4-2h13.4a1 1 0 0 0 1-1v-9.132a1 1 0 0 1 1-1h7.27a1 1 0 0 1 1 1v5.707h3.628a29.712 29.712 0 0 0 0-23.53h-3.628v5.706a1 1 0 0 1 -1 1h-7.27a1 1 0 0 1 -1-1v-9.127a1 1 0 0 0 -1-1h-7.258a1 1 0 0 1 -1-1v-4.287h-23.113v4.287a1 1 0 0 1 -1 1h-7.254a1 1 0 0 0 -1 1v23.762a1 1 0 0 0 1 1h20.249a1 1 0 0 1 .768.359z"/><path d="m33.846 22.137a1 1 0 0 1 -1-1v-7.932a1 1 0 1 1 2 0v7.932a1 1 0 0 1 -1 1z"/><path d="m42.438 14.205h-17.185a1 1 0 0 1 0-2h17.185a1 1 0 0 1 0 2z"/><path d="m12.033 41.966h-9.033a1 1 0 0 1 0-2h9.033a1 1 0 1 1 0 2z"/><path d="m3 50.559a1 1 0 0 1 -1-1v-17.186a1 1 0 0 1 2 0v17.186a1 1 0 0 1 -1 1z"/><path d="m29.16 48.5a1 1 0 0 1 -.9-1.437l2.889-5.953-4.249-3.331a1 1 0 0 1 .135-1.663l12.332-6.795a1 1 0 0 1 1.34 1.389l-3.556 5.95 4.02 3.5a1 1 0 0 1 -.156 1.619l-11.354 6.586a1 1 0 0 1 -.501.135zm.165-11.362 3.693 2.9a1 1 0 0 1 .282 1.224l-1.813 3.738 7.313-4.247-3.6-3.134a1 1 0 0 1 -.2-1.267l2.089-3.5z"/></svg>