<svg id="Icon_Set" height="512" viewBox="0 0 256 256" width="512" xmlns="http://www.w3.org/2000/svg"><g><g><g><g><path d="m31.754 178.413v64.481c0 2.46 1.989 4.449 4.449 4.449h15.667c2.46 0 4.449-1.989 4.449-4.449v-64.481c0-2.452-1.989-4.449-4.449-4.449h-15.668c-2.459.001-4.448 1.998-4.448 4.449z" fill="#5fcdff"/><path d="m31.754 178.413v64.481c0 2.46 1.989 4.449 4.449 4.449h3.491c2.46 0 4.449-1.989 4.449-4.449v-64.481c0-2.452-1.989-4.449-4.449-4.449h-3.491c-2.46.001-4.449 1.998-4.449 4.449z" fill="#30b6ff"/><path d="m150.463 193.849c-.276 5.866-5.329 10.379-11.202 10.379h-9.907l7.574 3.694c5.769 2.814 12.453 3.082 18.429.74l52.929-25.592c7.83-2.665 15.959 3.156 15.959 11.426 0 5.02-3.107 9.516-7.803 11.291l-27.707 14.147c-8.82 4.504-18.071 8.138-27.655 10.633-14.641 3.811-29.733 5.75-44.914 5.75h-4.75c-12.221 0-24.412-.844-36.597-1.785-2.945-.227-5.891-.092-8.77.389-3.361.56-6.633 1.592-9.729 3.076v-51.445c5.356-2.064 10.947-3.361 16.608-3.882 1.222-.11 2.448-.173 3.675-.211v-.044h62.965c6.2 0 11.19 5.171 10.895 11.434z" fill="#ffbb98"/><path d="m216.444 190.452-27.71 14.146c-8.821 4.508-18.072 8.146-27.649 10.641-14.647 3.802-29.734 5.744-44.913 5.744h-4.753c-12.225 0-24.419-.838-36.603-1.779-2.944-.235-5.887-.092-8.77.388-3.353.552-6.634 1.584-9.721 3.077v15.332c3.087-1.492 6.368-2.525 9.721-3.077 2.883-.48 5.826-.623 8.77-.388 12.184.94 24.378 1.779 36.603 1.779h4.753c15.179 0 30.266-1.942 44.913-5.744 9.577-2.494 18.828-6.133 27.649-10.641l27.71-14.146c4.692-1.768 7.799-6.266 7.799-11.284 0-2.964-1.042-5.622-2.749-7.676-1.309 1.594-3.026 2.861-5.05 3.628z" fill="#ffcaa6"/></g></g><g><path d="m168.051 48.396h-26.493l-11.392-30.864c-1.59-4.305 1.656-8.875 6.226-8.875h36.759c4.636 0 7.815 4.57 6.226 8.875z" fill="#b76c6c"/><path d="m211.896 128.669c0 31.526-25.566 40.733-57.158 40.733s-57.092-9.206-57.092-40.733 25.566-73.517 57.158-73.517 57.092 41.925 57.092 73.517z" fill="#b76c6c"/><ellipse cx="154.805" cy="112.244" fill="#44c7b6" rx="34.374" ry="34.374" transform="matrix(.083 -.997 .997 .083 30.175 257.263)"/><path d="m151.493 48.396h-9.935l-11.392-30.864c-1.59-4.305 1.656-8.875 6.226-8.875h9.935c-4.57 0-7.815 4.57-6.226 8.875z" fill="#c98585"/><path d="m159.706 169.323c-1.636.053-3.292.08-4.967.08-31.593 0-57.092-9.206-57.092-40.733 0-31.526 25.565-73.517 57.158-73.517 1.676 0 3.331.119 4.967.351-29.261 4.067-52.191 43.309-52.191 73.166s22.87 39.692 52.125 40.653z" fill="#c98585"/><path d="m179.377 17.532-11.326 30.864h-9.935l11.326-30.864c1.59-4.305-1.59-8.875-6.226-8.875h9.935c4.636 0 7.815 4.57 6.226 8.875z" fill="#965959"/><path d="m211.896 128.67c0 31.526-25.565 40.733-57.158 40.733-1.676 0-3.331-.027-4.967-.08 29.261-.96 52.191-10.796 52.191-40.653 0-29.917-22.87-69.106-52.125-73.166 1.636-.232 3.292-.351 4.967-.351 31.593-.001 57.092 41.924 57.092 73.517z" fill="#965959"/><path d="m175.138 61.378h-40.733c-3.643 0-6.623-2.98-6.623-6.623v-7.55c0-3.643 2.98-6.623 6.623-6.623h40.733c3.643 0 6.623 2.98 6.623 6.623v7.55c0 3.642-2.98 6.623-6.623 6.623z" fill="#44c7b6"/><path d="m144.34 61.378h-9.935c-3.643 0-6.623-2.98-6.623-6.623v-7.55c0-3.643 2.98-6.623 6.623-6.623h9.935c-3.643 0-6.623 2.98-6.623 6.623v7.55c0 3.642 2.98 6.623 6.623 6.623z" fill="#4bdbc3"/></g></g><g fill="#5f266d"><path d="m206.545 179.467-52.785 25.524c-2.167.832-4.457 1.222-6.745 1.224 4.452-2.581 7.461-7.388 7.461-12.894 0-8.219-6.687-14.906-14.906-14.906-64.565 0-62.334-.132-67.007.27-4.15.381-8.247 1.163-12.243 2.315v-2.587c0-4.659-3.79-8.449-8.449-8.449h-15.669c-4.658 0-8.448 3.79-8.448 8.449v64.481c0 4.659 3.79 8.449 8.448 8.449h15.668c4.659 0 8.449-3.79 8.449-8.449v-2.264c4.508-1.752 9.328-2.491 14.238-2.104 23.752 1.865 30.735 1.794 41.607 1.794 15.487 0 30.941-1.98 45.933-5.884 17.616-4.588 27.21-10.305 55.983-24.997 6.09-2.403 10.166-8.376 10.166-14.94 0-12.593-13.498-18.996-21.701-15.032zm-154.675 63.876h-15.668c-.251 0-.448-.197-.448-.449v-64.481c0-.248.201-.449.448-.449h15.668c.248 0 .449.201.449.449v64.481c0 .252-.197.449-.449.449zm162.756-41.123c-29.035 14.825-37.952 20.152-54.546 24.473-14.333 3.733-29.109 5.626-43.916 5.626-10.687 0-17.463.077-40.981-1.77-5.037-.395-10.043.153-14.864 1.616v-42.803c4.205-1.396 8.554-2.306 12.951-2.71 4.359-.374.403-.238 66.299-.238 3.808 0 6.906 3.098 6.906 6.906s-3.098 6.906-6.906 6.906h-38.507c-2.209 0-4 1.791-4 4s1.791 4 4 4h27.366l6.751 3.292c6.767 3.293 14.654 3.61 21.64.865.22-.086 52.755-25.496 52.967-25.599 5.238-1.63 10.459 2.321 10.459 7.713.001 3.98-2.215 5.99-5.619 7.723z"/><path d="m154.738 173.402c40.582 0 61.158-15.05 61.158-44.732 0-24.443-13.987-52.488-32.711-67 1.6-1.86 2.575-4.273 2.575-6.914v-7.551c0-5.358-3.991-9.791-9.155-10.509l6.523-17.777c2.55-6.904-2.56-14.261-9.978-14.261h-36.759c-7.357 0-12.526 7.361-9.979 14.26l6.557 17.772c-5.18.704-9.189 5.145-9.189 10.515v7.551c0 2.656.986 5.081 2.603 6.945-18.741 14.538-32.738 42.565-32.738 66.969.001 29.682 20.556 44.732 61.093 44.732zm-18.346-160.745h36.759c1.844 0 3.102 1.788 2.47 3.497l-7.495 20.427h-2.681l2.073-16.906c.269-2.193-1.291-4.188-3.483-4.457-2.2-.275-4.188 1.291-4.457 3.483l-2.192 17.88h-4.278l-1.28-11.733c-.24-2.196-2.22-3.785-4.41-3.543-2.196.24-3.782 2.214-3.543 4.41l1.185 10.866h-3.6l-7.539-20.435c-.632-1.706.699-3.489 2.471-3.489zm-4.61 34.547c0-1.422 1.202-2.623 2.624-2.623h40.732c1.422 0 2.623 1.201 2.623 2.623v7.551c0 1.422-1.201 2.623-2.623 2.623h-40.732c-1.422 0-2.624-1.201-2.624-2.623zm3.251 18.174h39.548c18.756 11.949 33.315 39.474 33.315 63.292 0 24.717-17.388 36.732-53.158 36.732-35.725 0-53.092-12.015-53.092-36.732 0-23.39 14.893-51.482 33.387-63.292z"/><path d="m154.805 150.618c21.16 0 38.374-17.214 38.374-38.374s-17.215-38.374-38.374-38.374-38.375 17.215-38.375 38.375 17.215 38.373 38.375 38.373zm0-68.748c16.748 0 30.374 13.626 30.374 30.375 0 16.748-13.626 30.374-30.374 30.374-16.749 0-30.375-13.626-30.375-30.374 0-16.749 13.626-30.375 30.375-30.375z"/><path d="m158.911 122.815h-10.995c-.309 0-.57-.261-.57-.57 0-2.209-1.791-4-4-4s-4 1.791-4 4c0 4.726 3.844 8.57 8.57 8.57h2.888v3.749c0 2.209 1.791 4 4 4s4-1.791 4-4v-3.749c6.554 0 11.392-5.245 11.392-11.286 0-6.223-5.063-11.285-11.285-11.285h-8.279c-1.842 0-3.285-1.443-3.285-3.286s1.443-3.286 3.285-3.286h10.995c.309 0 .57.261.57.57 0 2.209 1.791 4 4 4s4-1.791 4-4c0-4.726-3.844-8.57-8.57-8.57h-2.822v-3.749c0-2.209-1.791-4-4-4s-4 1.791-4 4v3.749c-6.659 0-11.458 5.263-11.458 11.286 0 6.223 5.063 11.286 11.285 11.286h8.279c1.842 0 3.285 1.443 3.285 3.285s-1.443 3.286-3.285 3.286z"/><path d="m74.396 217.302c-2.209 0-4 1.791-4 4v.417c0 2.209 1.791 4 4 4s4-1.791 4-4v-.417c0-2.209-1.791-4-4-4z"/><path d="m74.396 192.302c-2.209 0-4 1.791-4 4v10c0 2.209 1.791 4 4 4s4-1.791 4-4v-10c0-2.209-1.791-4-4-4z"/></g></g></svg>